<svg xmlns="http://www.w3.org/2000/svg" xml:space="preserve" width="2048" height="2048" style="shape-rendering:geometricPrecision;text-rendering:geometricPrecision;image-rendering:optimizeQuality;fill-rule:evenodd;clip-rule:evenodd"><path style="fill:#ffee58" d="M255.999 255.999h1536v1536h-1536z"/><path d="M1712.83 335.176H335.18v1377.65h1377.65V335.176zM295.59 256h1496.418V1792.006H256.002V256h39.588z" style="fill:#fdd835;fill-rule:nonzero"/><path style="fill:#26a69a;fill-rule:nonzero" d="M974.643 1030.63 509.476 565.456l55.98-55.98 465.164 465.17z"/><path style="fill:#00796b;fill-rule:nonzero" d="M497.879 877.175V497.879H877.175z"/><path style="fill:#fdd835" d="M1792 938.306H938.305V1792H1792z"/><path d="m1337.1 1007.55-17.624 123.366-10.263 2.467c-44.623 10.73-85.134 34.249-116.762 67.474l-7.267 7.639-115.696-46.44-28.056 48.596 98.005 76.928-2.98 10.113c-6.457 21.913-9.69 44.62-9.69 67.463 0 22.842 3.237 45.55 9.692 67.463l2.978 10.114-98.005 76.929 28.056 48.594 115.696-46.44 7.27 7.638c31.622 33.23 72.136 56.746 116.758 67.477l10.265 2.467 17.622 123.364h56.111l17.622-123.349 10.263-2.468c44.63-10.73 85.153-34.25 116.78-67.485l7.27-7.637 115.678 46.433 28.054-48.595-98.008-76.93 2.98-10.113c6.454-21.913 9.694-44.62 9.694-67.463 0-22.842-3.237-45.55-9.691-67.463l-2.98-10.113 98.005-76.93-28.054-48.594-115.696 46.44-7.27-7.638c-31.624-33.227-72.138-56.745-116.76-67.475l-10.264-2.469-17.623-123.364h-56.111zm-75.68 357.606c0 57.292 46.445 103.736 103.737 103.736 57.29 0 103.735-46.444 103.735-103.736s-46.445-103.736-103.735-103.736c-57.292 0-103.736 46.444-103.736 103.736z" style="fill:#f57f17"/><path d="M1136.45 1297.69c-6.456 21.913-9.69 44.62-9.69 67.463 0 22.843 3.238 45.55 9.692 67.464l2.98 10.114-98.007 76.928 28.056 48.595 115.696-46.44 7.27 7.638c31.623 33.23 72.137 56.746 116.76 67.476l10.264 2.468 17.622 123.364h28.056v-253.87c-57.292-.002-103.735-46.445-103.735-103.736 0-57.292 46.443-103.734 103.735-103.736v-253.87h-28.056l-17.624 123.366-10.263 2.467c-44.623 10.729-85.134 34.248-116.762 67.474l-7.267 7.638-115.696-46.44-28.056 48.597 98.006 76.928-2.982 10.112z" style="fill:#ef6713"/><path style="fill:none" d="M0 0h2048v2048H0z"/></svg>