<svg xmlns="http://www.w3.org/2000/svg" viewBox="0 0 1000 1000" xml:space="preserve"><switch><g><path fill="#FFCD35" d="M901.4 676.9V187.7c0-14.4-11.7-26.2-26.2-26.2h-676c-14.4 0-26.2 11.7-26.2 26.2v489.2c0 14.4 11.7 26.2 26.2 26.2h261.6v53c0 14.4-11.7 26.2-26.2 26.2h-72.3c-14.4 0-26.2 11.7-26.2 26.2v30.1h402.3v-30.1c0-14.4-11.7-26.2-26.2-26.2h-72.3c-14.4 0-26.2-11.7-26.2-26.2v-53h261.6c14.4 0 26.1-11.7 26.1-26.2z"/><path fill="#FFF" d="M875.3 161.5h-676c-14.4 0-26.1 11.7-26.2 26.1h728.3c0-14.4-11.7-26.1-26.1-26.1zM215.3 614.5h643.9v26.1H215.3zM340.5 781.9H734V808H340.5z"/><path fill="#4EA4DB" d="M226 215.3h622.6v399.2H226z"/><path fill="#FFF" d="M226 215.3h622.6v20H226z"/><path fill="#122436" d="M748.8 849H325.7v-40.6c0-20.2 16.4-36.6 36.6-36.6h72.3c8.7 0 15.7-7 15.7-15.7v-42.5H199.2c-20.2 0-36.6-16.4-36.6-36.6V187.7c0-20.2 16.4-36.6 36.6-36.6h676c20.2 0 36.6 16.4 36.6 36.6v489.2c0 20.2-16.4 36.6-36.6 36.6h-251V756c0 8.7 7 15.7 15.7 15.7h72.3c20.2 0 36.6 16.4 36.6 36.6V849zm-402.2-21h381.3v-19.7c0-8.7-7-15.7-15.7-15.7h-72.3c-20.2 0-36.6-16.4-36.6-36.6v-63.5h272c8.7 0 15.7-7 15.7-15.7V187.7c0-8.7-7-15.7-15.7-15.7h-676c-8.7 0-15.7 7-15.7 15.7v489.2c0 8.7 7 15.7 15.7 15.7h272v63.5c0 20.2-16.4 36.6-36.6 36.6h-72.3c-8.7 0-15.7 7-15.7 15.7V828z"/><circle fill="#FFF" cx="499.6" cy="673.5" r="11.3"/><circle fill="#FFF" cx="537.3" cy="673.5" r="11.3"/><circle fill="#FFF" cx="574.9" cy="673.5" r="11.3"/><path fill="#122436" d="M859 625H215.5V204.9H859V625zm-622.6-21H838V225.8H236.4V604z"/><path fill="#FFF" d="M301.2 264.2h142.1v111H301.2zM477.5 264.2h299.8v111H477.5zM424.2 555.7h20v20h-20zM403.5 575.7h-20.7v-20h20.7v20zm-41.4 0h-20.7v-20h20.7v20zM300.8 555.7h20v20h-20zM320.8 536.4h-20v-19.3h20v19.3zm0-38.6h-20v-19.3h20v19.3zm0-38.6h-20v-19.3h20v19.3zM300.8 400.7h20v20h-20zM403.5 420.7h-20.7v-20h20.7v20zm-41.4 0h-20.7v-20h20.7v20zM424.2 400.7h20v20h-20zM444.2 536.4h-20v-19.3h20v19.3zm0-38.6h-20v-19.3h20v19.3zm0-38.6h-20v-19.3h20v19.3z"/><g><path fill="#4EA4DB" d="M358.5 343v-46.7l38.3 23.3z"/></g><g><path fill="#FFF" d="M477.5 402h137v47.3h-137z"/></g><g><path fill="#FFF" d="M477.5 464.5h137v47.3h-137z"/></g><g><path fill="#FFF" d="M477.5 527h137v47.3h-137z"/></g><g><path fill="#FFF" d="M640.2 402h137v47.3h-137z"/></g><g><path fill="#4EA4DB" d="M672.5 320.5 646 357.1h52.9z"/><path fill="#4EA4DB" d="m716.2 302.3-39.7 54.8h79.4z"/><circle fill="#4EA4DB" cx="672.5" cy="301.1" r="11"/></g><g><path fill="#4EA4DB" d="m667.6 439.7-13.9-13.9 6.2-6.3 7.7 7.6 17.4-17.4 6.3 6.3z"/></g><g><path fill="#FFF" d="M640.2 464.5h137v47.3h-137z"/></g><g><path fill="#4EA4DB" d="m667.6 502.2-13.9-14 6.2-6.3 7.7 7.7 17.4-17.4 6.3 6.2z"/></g><g><path fill="#FFF" d="M640.2 527h137v47.3h-137z"/></g><g><path fill="#4EA4DB" d="m667.6 564.6-13.9-13.9 6.2-6.3 7.7 7.6 17.4-17.4 6.3 6.3z"/></g><g><circle transform="matrix(.9961 -.08782 .08782 .9961 -51.97 23.81)" fill="#FFF" cx="244.6" cy="602.5" r="146.5"/><path fill="#4EA4DB" d="m270.7 691.6 16.6-47.1-42.7-72.4-42.6 72.4 16.5 47.1z"/><path fill="#FFCD35" d="M285.9 710h-82.6c-5.1 0-9.2-4.1-9.2-9.2s4.1-9.2 9.2-9.2h82.6c5.1 0 9.2 4.1 9.2 9.2s-4.1 9.2-9.2 9.2z"/><path fill="#122436" d="m244.6 572.1-6.6 11.3v58.8h13.3v-58.8z"/><circle fill="#122436" cx="244.6" cy="645.6" r="13.7"/><path fill="#FFCD35" d="M244.6 749.1c11.9 0 23.5-1.5 34.6-4.2V710H210v34.8c11.1 2.8 22.7 4.3 34.6 4.3z"/><g><path fill="#122436" d="M171.4 527.2h146.4v20H171.4z"/><path fill="#122436" d="M327.8 610.5h-20c0-34.9-28.4-63.2-63.2-63.2-34.9 0-63.2 28.4-63.2 63.2h-20c0-45.9 37.3-83.2 83.2-83.2s83.2 37.3 83.2 83.2z"/><path fill="#FFCD35" d="M229.6 522.2h30v30h-30z"/><circle fill="#4EA4DB" cx="171.4" cy="537.2" r="15"/><circle fill="#4EA4DB" cx="317.8" cy="537.2" r="15"/></g><g><path fill="#122436" d="M244.3 759.1c-36.7 0-71.8-12.7-100.2-36.6-32-26.8-51.7-64.6-55.4-106.2-7.6-86 56.2-162.1 142.2-169.6 86-7.6 162.1 56.2 169.6 142.2 3.7 41.6-9.1 82.2-35.9 114.3-26.8 32-64.6 51.7-106.2 55.4-4.7.3-9.4.5-14.1.5zm.4-293.1c-4 0-8 .2-12.1.5-75 6.6-130.6 73-124 148 3.2 36.3 20.4 69.2 48.3 92.6 27.9 23.4 63.3 34.5 99.7 31.3 36.3-3.2 69.2-20.4 92.6-48.3 23.4-27.9 34.6-63.3 31.3-99.7-6.2-70.8-65.9-124.4-135.8-124.4z"/></g></g></g></switch></svg>